<svg class="main-svg" xmlns="http://www.w3.org/2000/svg" xmlns:xlink="http://www.w3.org/1999/xlink" width="1920" height="1080" style="" viewBox="0 0 1920 1080"><rect x="0" y="0" width="1920" height="1080" style="fill: rgb(17, 17, 17); fill-opacity: 1;"/><defs id="defs-dd69ad"><g class="clips"><clipPath id="clipdd69adxyplot" class="plotclip"><rect width="1760" height="900"/></clipPath><clipPath class="axesclip" id="clipdd69adx"><rect x="80" y="0" width="1760" height="1080"/></clipPath><clipPath class="axesclip" id="clipdd69ady"><rect x="0" y="100" width="1920" height="900"/></clipPath><clipPath class="axesclip" id="clipdd69adxy"><rect x="80" y="100" width="1760" height="900"/></clipPath></g><g class="gradients"/><g class="patterns"/></defs><g class="bglayer"/><g class="layer-below"><g class="imagelayer"/><g class="shapelayer"/></g><g class="cartesianlayer"><g class="subplot xy"><g class="layer-subplot"><g class="shapelayer"/><g class="imagelayer"/></g><g class="gridlayer"><g class="x"><path class="xgrid crisp" transform="translate(134.34,0)" d="M0,100v900" style="stroke: rgb(40, 52, 66); stroke-opacity: 1; stroke-width: 1px;"/><path class="xgrid crisp" transform="translate(406.05,0)" d="M0,100v900" style="stroke: rgb(40, 52, 66); stroke-opacity: 1; stroke-width: 1px;"/><path class="xgrid crisp" transform="translate(677.76,0)" d="M0,100v900" style="stroke: rgb(40, 52, 66); stroke-opacity: 1; stroke-width: 1px;"/><path class="xgrid crisp" transform="translate(949.46,0)" d="M0,100v900" style="stroke: rgb(40, 52, 66); stroke-opacity: 1; stroke-width: 1px;"/><path class="xgrid crisp" transform="translate(1221.17,0)" d="M0,100v900" style="stroke: rgb(40, 52, 66); stroke-opacity: 1; stroke-width: 1px;"/><path class="xgrid crisp" transform="translate(1492.88,0)" d="M0,100v900" style="stroke: rgb(40, 52, 66); stroke-opacity: 1; stroke-width: 1px;"/><path class="xgrid crisp" transform="translate(1764.59,0)" d="M0,100v900" style="stroke: rgb(40, 52, 66); stroke-opacity: 1; stroke-width: 1px;"/></g><g class="y"><path class="ygrid crisp" transform="translate(0,864.78)" d="M80,0h1760" style="stroke: rgb(40, 52, 66); stroke-opacity: 1; stroke-width: 1px;"/><path class="ygrid crisp" transform="translate(0,774.52)" d="M80,0h1760" style="stroke: rgb(40, 52, 66); stroke-opacity: 1; stroke-width: 1px;"/><path class="ygrid crisp" transform="translate(0,684.26)" d="M80,0h1760" style="stroke: rgb(40, 52, 66); stroke-opacity: 1; stroke-width: 1px;"/><path class="ygrid crisp" transform="translate(0,594)" d="M80,0h1760" style="stroke: rgb(40, 52, 66); stroke-opacity: 1; stroke-width: 1px;"/><path class="ygrid crisp" transform="translate(0,503.74)" d="M80,0h1760" style="stroke: rgb(40, 52, 66); stroke-opacity: 1; stroke-width: 1px;"/><path class="ygrid crisp" transform="translate(0,413.48)" d="M80,0h1760" style="stroke: rgb(40, 52, 66); stroke-opacity: 1; stroke-width: 1px;"/><path class="ygrid crisp" transform="translate(0,323.22)" d="M80,0h1760" style="stroke: rgb(40, 52, 66); stroke-opacity: 1; stroke-width: 1px;"/><path class="ygrid crisp" transform="translate(0,232.96)" d="M80,0h1760" style="stroke: rgb(40, 52, 66); stroke-opacity: 1; stroke-width: 1px;"/><path class="ygrid crisp" transform="translate(0,142.7)" d="M80,0h1760" style="stroke: rgb(40, 52, 66); stroke-opacity: 1; stroke-width: 1px;"/></g></g><g class="zerolinelayer"><path class="yzl zl crisp" transform="translate(0,955.05)" d="M80,0h1760" style="stroke: rgb(40, 52, 66); stroke-opacity: 1; stroke-width: 2px;"/></g><path class="xlines-below"/><path class="ylines-below"/><g class="overlines-below"/><g class="xaxislayer-below"/><g class="yaxislayer-below"/><g class="overaxes-below"/><g class="plot" transform="translate(80,100)" clip-path="url(#clipdd69adxyplot)"><g class="scatterlayer mlayer"><g class="trace scatter trace896175" style="stroke-miterlimit: 2; opacity: 1;"><g class="fills"/><g class="errorbars"/><g class="lines"><path class="js-line" d="M0,855L108.68,854.95L122.27,854.23L163.02,854.01L176.61,850.8L190.2,850.08L203.78,847.51L217.37,839.16L230.95,824.18L271.71,760.14L285.29,756.53L298.88,754L312.46,744.79L326.05,735.63L339.63,738.34L353.22,756.84L366.8,768.8L380.39,768.26L393.98,761.85L407.56,762.8L421.15,757.61L434.73,758.65L448.32,763.88L461.9,765.73L475.49,762.39L489.07,761.35L502.66,764.78L516.24,768.35L529.83,767.09L543.41,754.49L557,759.19L570.59,765.69L584.17,770.7L597.76,775.66L611.34,785.91L624.93,788.97L638.51,795.11L652.1,802.42L665.68,804.41L692.85,787.26L706.44,781.66L720.02,774.67L733.61,768.76L747.2,770.11L760.78,763.88L774.37,760.95L787.95,760.77L801.54,757.74L815.12,749.12L828.71,744.88L842.29,741.9L855.88,740.68L869.46,735.27L883.05,732.88L896.63,733.1L910.22,736.49L923.8,726.42L937.39,712.34L950.98,710.72L964.56,707.56L978.15,688.38L991.73,682.87L1005.32,671.27L1018.9,671.73L1032.49,675.88L1046.07,679.94L1059.66,685.45L1073.24,674.39L1086.83,679.98L1100.41,682.65L1114,677.23L1127.59,670.6L1141.17,672.72L1154.76,672.58L1168.34,673.26L1181.93,666.94L1195.51,658.32L1209.1,655.16L1222.68,659.31L1236.27,657.92L1249.85,651.15L1263.44,650.69L1277.02,638.78L1290.61,658.19L1304.2,660.4L1317.78,666.72L1331.37,670.46L1344.95,662.61L1358.54,662.93L1372.12,650.38L1385.71,642.89L1399.29,634.22L1412.88,624.65L1426.46,610.03L1440.05,598.79L1453.63,590.17L1467.22,566.62L1480.8,522.52L1494.39,502.13L1507.98,469.9L1521.56,404.42L1535.15,338.66L1548.73,303.91L1575.9,218.98L1589.49,188.2L1603.07,139.77L1616.66,114.64L1630.24,61.2L1643.83,45L1657.41,52.81L1671,81.51L1684.59,196.19L1698.17,354.73" style="vector-effect: non-scaling-stroke; fill: none; stroke: rgb(245, 197, 24); stroke-opacity: 1; stroke-width: 2px; opacity: 1;"/></g><g class="points"/><g class="text"/></g></g></g><g class="overplot"/><path class="xlines-above crisp" d="M0,0" style="fill: none;"/><path class="ylines-above crisp" d="M0,0" style="fill: none;"/><g class="overlines-above"/><g class="xaxislayer-above"><g class="xtick"><text text-anchor="middle" x="0" y="1013" transform="translate(134.34,0)" style="font-family: 'Open Sans', verdana, arial, sans-serif; font-size: 12px; fill: rgb(242, 245, 250); fill-opacity: 1; white-space: pre; opacity: 1;">1900</text></g><g class="xtick"><text text-anchor="middle" x="0" y="1013" style="font-family: 'Open Sans', verdana, arial, sans-serif; font-size: 12px; fill: rgb(242, 245, 250); fill-opacity: 1; white-space: pre; opacity: 1;" transform="translate(406.05,0)">1920</text></g><g class="xtick"><text text-anchor="middle" x="0" y="1013" style="font-family: 'Open Sans', verdana, arial, sans-serif; font-size: 12px; fill: rgb(242, 245, 250); fill-opacity: 1; white-space: pre; opacity: 1;" transform="translate(677.76,0)">1940</text></g><g class="xtick"><text text-anchor="middle" x="0" y="1013" style="font-family: 'Open Sans', verdana, arial, sans-serif; font-size: 12px; fill: rgb(242, 245, 250); fill-opacity: 1; white-space: pre; opacity: 1;" transform="translate(949.46,0)">1960</text></g><g class="xtick"><text text-anchor="middle" x="0" y="1013" style="font-family: 'Open Sans', verdana, arial, sans-serif; font-size: 12px; fill: rgb(242, 245, 250); fill-opacity: 1; white-space: pre; opacity: 1;" transform="translate(1221.17,0)">1980</text></g><g class="xtick"><text text-anchor="middle" x="0" y="1013" style="font-family: 'Open Sans', verdana, arial, sans-serif; font-size: 12px; fill: rgb(242, 245, 250); fill-opacity: 1; white-space: pre; opacity: 1;" transform="translate(1492.88,0)">2000</text></g><g class="xtick"><text text-anchor="middle" x="0" y="1013" style="font-family: 'Open Sans', verdana, arial, sans-serif; font-size: 12px; fill: rgb(242, 245, 250); fill-opacity: 1; white-space: pre; opacity: 1;" transform="translate(1764.59,0)">2020</text></g></g><g class="yaxislayer-above"><g class="ytick"><text text-anchor="end" x="79" y="4.199999999999999" transform="translate(0,955.05)" style="font-family: 'Open Sans', verdana, arial, sans-serif; font-size: 12px; fill: rgb(242, 245, 250); fill-opacity: 1; white-space: pre; opacity: 1;">0</text></g><g class="ytick"><text text-anchor="end" x="79" y="4.199999999999999" style="font-family: 'Open Sans', verdana, arial, sans-serif; font-size: 12px; fill: rgb(242, 245, 250); fill-opacity: 1; white-space: pre; opacity: 1;" transform="translate(0,864.78)">2k</text></g><g class="ytick"><text text-anchor="end" x="79" y="4.199999999999999" style="font-family: 'Open Sans', verdana, arial, sans-serif; font-size: 12px; fill: rgb(242, 245, 250); fill-opacity: 1; white-space: pre; opacity: 1;" transform="translate(0,774.52)">4k</text></g><g class="ytick"><text text-anchor="end" x="79" y="4.199999999999999" style="font-family: 'Open Sans', verdana, arial, sans-serif; font-size: 12px; fill: rgb(242, 245, 250); fill-opacity: 1; white-space: pre; opacity: 1;" transform="translate(0,684.26)">6k</text></g><g class="ytick"><text text-anchor="end" x="79" y="4.199999999999999" style="font-family: 'Open Sans', verdana, arial, sans-serif; font-size: 12px; fill: rgb(242, 245, 250); fill-opacity: 1; white-space: pre; opacity: 1;" transform="translate(0,594)">8k</text></g><g class="ytick"><text text-anchor="end" x="79" y="4.199999999999999" style="font-family: 'Open Sans', verdana, arial, sans-serif; font-size: 12px; fill: rgb(242, 245, 250); fill-opacity: 1; white-space: pre; opacity: 1;" transform="translate(0,503.74)">10k</text></g><g class="ytick"><text text-anchor="end" x="79" y="4.199999999999999" style="font-family: 'Open Sans', verdana, arial, sans-serif; font-size: 12px; fill: rgb(242, 245, 250); fill-opacity: 1; white-space: pre; opacity: 1;" transform="translate(0,413.48)">12k</text></g><g class="ytick"><text text-anchor="end" x="79" y="4.199999999999999" style="font-family: 'Open Sans', verdana, arial, sans-serif; font-size: 12px; fill: rgb(242, 245, 250); fill-opacity: 1; white-space: pre; opacity: 1;" transform="translate(0,323.22)">14k</text></g><g class="ytick"><text text-anchor="end" x="79" y="4.199999999999999" style="font-family: 'Open Sans', verdana, arial, sans-serif; font-size: 12px; fill: rgb(242, 245, 250); fill-opacity: 1; white-space: pre; opacity: 1;" transform="translate(0,232.96)">16k</text></g><g class="ytick"><text text-anchor="end" x="79" y="4.199999999999999" style="font-family: 'Open Sans', verdana, arial, sans-serif; font-size: 12px; fill: rgb(242, 245, 250); fill-opacity: 1; white-space: pre; opacity: 1;" transform="translate(0,142.7)">18k</text></g></g><g class="overaxes-above"/></g></g><g class="polarlayer"/><g class="ternarylayer"/><g class="geolayer"/><g class="funnelarealayer"/><g class="pielayer"/><g class="iciclelayer"/><g class="treemaplayer"/><g class="sunburstlayer"/><g class="glimages"/><defs id="topdefs-dd69ad"><g class="clips"/></defs><g class="layer-above"><g class="imagelayer"/><g class="shapelayer"/></g><g class="infolayer"><g class="g-gtitle"/><g class="g-xtitle"/><g class="g-ytitle"/><g class="annotation" data-index="0" style="opacity: 0.8;"><g class="annotation-text-g" transform="rotate(0,409.63,808.34)"><g class="cursor-pointer" transform="translate(330,799)"><rect class="bg" x="0.5" y="0.5" width="158" height="18" style="stroke-width: 1px; stroke: rgb(0, 0, 0); stroke-opacity: 0; fill: rgb(0, 0, 0); fill-opacity: 0;"/><text class="annotation-text" text-anchor="middle" x="80.15625" y="14" style="font-family: 'Open Sans', verdana, arial, sans-serif; font-size: 12px; fill: rgb(242, 245, 250); fill-opacity: 1; white-space: pre;">The Kid, Chaplin (8.3/10)</text></g></g><g class="annotation-arrow-g" style="opacity: 1;"><path d="M412.63,817.34L419.63,838.34" style="stroke-width: 1px; stroke: rgb(242, 245, 250); stroke-opacity: 1; stroke-dasharray: 0px, 0px, 21.5359px, 22.1359px;"/><path d="M-2.4,-3V3L0.6,0Z" transform="translate(419.4402770996094,837.7708129882812)rotate(71.56505117707799)" style="fill: rgb(242, 245, 250); stroke-width: 0;"/></g></g><g class="annotation" data-index="1" style="opacity: 0.8;"><g class="annotation-text-g" transform="rotate(0,1102.49,745.88)"><g class="cursor-pointer" transform="translate(1001,736)"><rect class="bg" x="0.5" y="0.5" width="201" height="18" style="stroke-width: 1px; stroke: rgb(0, 0, 0); stroke-opacity: 0; fill: rgb(0, 0, 0); fill-opacity: 0;"/><text class="annotation-text" text-anchor="middle" x="101.59375" y="14" style="font-family: 'Open Sans', verdana, arial, sans-serif; font-size: 12px; fill: rgb(242, 245, 250); fill-opacity: 1; white-space: pre;">The Godfather, Coppola (9.2/10)</text></g></g><g class="annotation-arrow-g" style="opacity: 1;"><path d="M1105.49,754.88L1112.49,775.88" style="stroke-width: 1px; stroke: rgb(242, 245, 250); stroke-opacity: 1; stroke-dasharray: 0px, 0px, 21.5359px, 22.1359px;"/><path d="M-2.4,-3V3L0.6,0Z" transform="translate(1112.30029296875,775.310791015625)rotate(71.56505117707799)" style="fill: rgb(242, 245, 250); stroke-width: 0;"/></g></g><g class="annotation" data-index="2" style="opacity: 0.8;"><g class="annotation-text-g" transform="rotate(0,1401.37,740.46)"><g class="cursor-pointer" transform="translate(1253,731)"><rect class="bg" x="0.5" y="0.5" width="295" height="18" style="stroke-width: 1px; stroke: rgb(0, 0, 0); stroke-opacity: 0; fill: rgb(0, 0, 0); fill-opacity: 0;"/><text class="annotation-text" text-anchor="middle" x="148.328125" y="14" style="font-family: 'Open Sans', verdana, arial, sans-serif; font-size: 12px; fill: rgb(242, 245, 250); fill-opacity: 1; white-space: pre;">The Shawshank Redemption, Darabont (9.3/10)</text></g></g><g class="annotation-arrow-g" style="opacity: 1;"><path d="M1404.37,749.46L1411.37,770.46" style="stroke-width: 1px; stroke: rgb(242, 245, 250); stroke-opacity: 1; stroke-dasharray: 0px, 0px, 21.5359px, 22.1359px;"/><path d="M-2.4,-3V3L0.6,0Z" transform="translate(1411.1802978515625,769.8908081054688)rotate(71.56505117707799)" style="fill: rgb(242, 245, 250); stroke-width: 0;"/></g></g><g class="annotation" data-index="3" style="opacity: 0.8;"><g class="annotation-text-g" transform="rotate(0,1741,151.51)"><g class="cursor-pointer" transform="translate(1642,142)"><rect class="bg" x="0.5" y="0.5" width="197" height="18" style="stroke-width: 1px; stroke: rgb(0, 0, 0); stroke-opacity: 0; fill: rgb(0, 0, 0); fill-opacity: 0;"/><text class="annotation-text" text-anchor="middle" x="99.234375" y="14" style="font-family: 'Open Sans', verdana, arial, sans-serif; font-size: 12px; fill: rgb(242, 245, 250); fill-opacity: 1; white-space: pre;">Parasite, Bong Joon-ho (8.6/10)</text></g></g><g class="annotation-arrow-g" style="opacity: 1;"><path d="M1744,160.51L1751,181.51" style="stroke-width: 1px; stroke: rgb(242, 245, 250); stroke-opacity: 1; stroke-dasharray: 0px, 0px, 21.5359px, 22.1359px;"/><path d="M-2.4,-3V3L0.6,0Z" transform="translate(1750.810302734375,180.94078063964844)rotate(71.56781601708516)" style="fill: rgb(242, 245, 250); stroke-width: 0;"/></g></g></g></svg>